<?xml version="1.0" encoding="utf-8"?>
<!-- Generator: Adobe Illustrator 15.0.2, SVG Export Plug-In . SVG Version: 6.00 Build 0)  -->
<!DOCTYPE svg PUBLIC "-//W3C//DTD SVG 1.1//EN" "http://www.w3.org/Graphics/SVG/1.1/DTD/svg11.dtd">
<svg version="1.1" id="Calque_2" xmlns="http://www.w3.org/2000/svg" xmlns:xlink="http://www.w3.org/1999/xlink" x="0px" y="0px"
	 width="203px" height="175px" viewBox="0 0 203 175" enable-background="new 0 0 203 175" xml:space="preserve">
<g>
	<path fill="#FFFFFF" d="M85.277,113.763c-0.232,0-0.421,0.17-0.421,0.38v0.802c0,0.209,0.188,0.378,0.421,0.378h33.586
		c0.231,0,0.42-0.169,0.42-0.378v-0.802c0-0.21-0.188-0.38-0.42-0.38H85.277z"/>
	<path fill="#FFFFFF" d="M86.216,45.1c-0.233,0-0.422,0.17-0.422,0.379v0.992c0,0.21,0.189,0.38,0.422,0.38h31.714
		c0.234,0,0.422-0.17,0.422-0.38v-0.992c0-0.209-0.188-0.379-0.422-0.379H86.216z"/>
	<path fill="#FFFFFF" d="M110.68,39.562c5.087,0.634,5.497,4.734,5.497,4.734H87.97c0,0,0.41-4.101,5.498-4.734H110.68z"/>
	<path fill="#FFFFFF" d="M94.317,37.016c-0.723,0-0.723,0.651-0.723,0.651v1.099h16.958v-1.098c0,0,0-0.652-0.722-0.652
		L94.317,37.016L94.317,37.016z"/>
	<path fill="#FFFFFF" d="M117.557,47.646l1.121,1.056c0,0,0.327,0.336,0.327,0.759c0,0.422,0,63.213,0,63.213
		s-0.047,0.17-0.138,0.286H85.281c-0.093-0.116-0.141-0.286-0.141-0.286s0-62.791,0-63.213c0-0.423,0.328-0.759,0.328-0.759
		l1.123-1.056H117.557z"/>
	<path fill="#FFFFFF" d="M106.596,31.038c0,0,0-0.461-0.511-0.461h-2.117c0,0-1.088,0.124-1.895,0.124
		c-0.807,0-1.894-0.124-1.894-0.124h-2.118c-0.512,0-0.512,0.461-0.512,0.461l-0.268,5.175h9.586L106.596,31.038z M102.073,34.147
		c-0.715,0-1.295-0.523-1.295-1.168s0.58-1.167,1.295-1.167c0.717,0,1.295,0.522,1.295,1.167
		C103.368,33.625,102.79,34.147,102.073,34.147z"/>
	<ellipse fill="#FFFFFF" cx="102.073" cy="32.98" rx="0.399" ry="0.361"/>
</g>
<path fill="#FFFFFF" d="M122.918,40.575v9.161c11.85,7.434,19.749,20.607,19.749,35.597c0,23.159-18.842,42-42,42
	c-23.159,0-42-18.842-42-42c0-16.345,9.391-30.529,23.056-37.467v-8.795C63.52,46.553,50.666,64.466,50.666,85.333
	c0,27.571,22.43,50,50,50c27.571,0,50-22.43,50-50C150.667,65.754,139.35,48.778,122.918,40.575z"/>
</svg>
