<?xml version="1.0" encoding="utf-8"?>
<!-- Generator: Adobe Illustrator 16.0.0, SVG Export Plug-In . SVG Version: 6.00 Build 0)  -->
<!DOCTYPE svg PUBLIC "-//W3C//DTD SVG 1.1//EN" "http://www.w3.org/Graphics/SVG/1.1/DTD/svg11.dtd">
<svg version="1.1" id="Calque_5" xmlns="http://www.w3.org/2000/svg" xmlns:xlink="http://www.w3.org/1999/xlink" x="0px" y="0px"
	 width="203px" height="175px" viewBox="0 0 203 175" enable-background="new 0 0 203 175" xml:space="preserve">
<path fill="#FFFFFF" d="M125.814,42.146v9.57c10.225,7.667,16.853,19.883,16.853,33.617c0,23.158-18.841,42-42,42s-42-18.841-42-42
	c0-14.834,7.737-27.887,19.38-35.361v-9.207c-16.231,8.271-27.38,25.137-27.38,44.568c0,27.569,22.43,50,50,50
	c27.569,0,50-22.431,50-50C150.667,66.929,140.664,50.826,125.814,42.146z"/>
<g>
	<path fill="#FFFFFF" d="M94.816,90.072h-0.841v5.607h0.841c0.573,0,0.82-0.46,0.82-1.14v-3.503
		C95.636,90.51,95.455,90.072,94.816,90.072z"/>
	<path fill="#FFFFFF" d="M119.918,20.535c0.006-0.067,0.029-0.133,0.029-0.201c0-3.331-7.965-6.032-17.79-6.032
		s-17.79,2.701-17.79,6.032c0,0.068,0.023,0.134,0.03,0.201h-0.335v89.27h0.572c1.415,2.853,8.711,5.025,17.523,5.025
		c8.812,0,16.108-2.174,17.524-5.025h0.569v-89.27H119.918z M97.315,94.561c0,0.926-0.083,1.428-0.283,1.789
		c-0.296,0.543-0.784,0.789-1.463,0.789h-1.594h-1.679V85.325h1.679V88.6h1.579c0.803,0,1.214,0.312,1.496,0.76
		c0.215,0.35,0.265,0.828,0.265,2.018V94.561z M103.704,97.139h-3.282c-0.842,0-1.729-0.543-1.729-2.031V88.6h1.679v6.09
		c0,0.612,0.291,0.992,0.818,0.992h0.837V88.6h1.676L103.704,97.139L103.704,97.139z M108.421,90.072h-0.87
		c-0.523,0-0.818,0.367-0.818,0.979v6.088h-1.68v-6.503c0-1.489,0.893-2.036,1.729-2.036h1.642L108.421,90.072z M114.4,97.139
		h-1.676v-6.086c0-0.611-0.297-0.979-0.828-0.979h-0.832v7.065h-1.681V88.6h3.29c0.836,0,1.727,0.547,1.727,2.036V97.139z
		 M114.354,66.175c-3.418,6.635-14.074,13.672-14.877,16.084c0,0,1.854-8.914,0.201-13.873c-2.212-6.635-8.444-12.062-6.836-19.301
		c1.215-5.468,5.065-8.73,5.429-11.259c0,0,0.441,5.85-0.281,6.909c1.915-2.806,4.302-10.126,4.302-12.337
		c0.402,4.625,0,7.439-0.402,9.048c-0.402,1.608,0,8.243,1.609,11.862c1.609,3.619,3.217,5.429,2.814,8.444
		c0.604-5.831,0-7.64-1.006-10.053c-1.006-2.413-1.006-6.434,0.604-9.048c0.88-1.431,1.212-1.881,1.6-2.667
		c0.493-1.213,0.516-1.59,0.612-2.159c0.183,0.455,0.229,1.418-0.571,3.146c-0.761,2.529-0.115,5.651,0.975,8.917
		C109.725,53.489,117.771,59.541,114.354,66.175z"/>
</g>
</svg>
