<?xml version="1.0" encoding="utf-8"?>
<!-- Generator: Adobe Illustrator 15.0.2, SVG Export Plug-In . SVG Version: 6.00 Build 0)  -->
<!DOCTYPE svg PUBLIC "-//W3C//DTD SVG 1.1//EN" "http://www.w3.org/Graphics/SVG/1.1/DTD/svg11.dtd">
<svg version="1.1" id="Calque_2" xmlns="http://www.w3.org/2000/svg" xmlns:xlink="http://www.w3.org/1999/xlink" x="0px" y="0px"
	 width="203px" height="175px" viewBox="0 0 203 175" enable-background="new 0 0 203 175" xml:space="preserve">
<path fill="#FFFFFF" d="M89.42,57.867l-1.397,0.083c-14.464,2.841-18.813,7.434-23.847,12.751c-0.875,0.922-1.778,1.876-2.758,2.843
	c-4.943,4.882-16.805,4.951-21.871,4.981c-1.877,0.011-2.438,0.022-2.812,0.173c-1.115,0.453-1.531,0.622,4.202,17.712
	c2.688,8.014,5.542,16.08,5.571,16.158l0.153,0.436l0.431,0.166c0.256,0.096,3.551,1.332,8.113,1.332
	c4.137-0.002,9.312-1.014,14.205-4.801c3.638-2.818,5.712-5.92,7.719-8.918c3.627-5.422,7.083-10.547,19.352-14.661l14.149,35.228
	l0.063,0.066l3.881-0.959L89.42,57.867z M83.312,61.1l2.206,4.696l-12.151,5.711l-2.209-4.701
	C74.009,64.579,77.599,62.662,83.312,61.1z M59.124,77.484l0.277,0.586l-11.248,5.284l-1.443-3.071
	C50.804,79.971,55.46,79.239,59.124,77.484z M44.021,99.293c-1.217-3.58-2.396-7.121-3.383-10.189l6.555-3.08l4.535,9.65
	L44.021,99.293z M51.2,112.131l6.767-3.184l1.457,3.1C56.226,112.656,53.311,112.473,51.2,112.131z M66.121,90.016l4.961,10.557
	l-12.152,5.711l-0.908,0.426l-4.536-9.648l-0.238-0.488l0.897-0.467L66.121,90.016l-5.153-10.467l-0.516-0.874l1.189-0.55
	l11.245-5.284l5.389,11.464L66.121,90.016z M83.4,90.502l-2.887-6.143l5.623-2.642l5.622-2.643l2.649,5.637
	C89.535,86.475,86.056,88.438,83.4,90.502z"/>
<path fill="#FFFFFF" d="M87.832,120.459l3.881,0.959l0.064-0.064l14.149-35.229c12.269,4.116,15.724,9.237,19.351,14.661
	c2.006,3,4.081,6.102,7.719,8.918c4.892,3.787,10.067,4.801,14.204,4.801c4.562,0,7.857-1.232,8.113-1.33l0.431-0.166l0.151-0.436
	c0.029-0.08,2.884-8.146,5.573-16.158c5.734-17.091,5.316-17.261,4.201-17.713c-0.373-0.152-0.934-0.162-2.812-0.173
	c-5.065-0.03-16.929-0.099-21.873-4.981c-0.979-0.967-1.884-1.921-2.756-2.843c-5.033-5.318-9.385-9.91-23.848-12.751l-1.397-0.083
	L87.832,120.459z M131.245,66.806l-2.209,4.701l-12.152-5.711l2.206-4.696C124.803,62.662,128.394,64.579,131.245,66.806z
	 M155.69,80.285l-1.443,3.071l-11.246-5.284l0.275-0.585C146.941,79.239,151.598,79.971,155.69,80.285z M150.677,95.67l4.534-9.648
	l6.556,3.08c-0.99,3.068-2.169,6.611-3.384,10.191L150.677,95.67z M142.979,112.047l1.456-3.098l6.767,3.182
	C149.094,112.473,146.177,112.656,142.979,112.047z M124.129,84.306l5.387-11.464l11.246,5.284l1.189,0.55l-0.517,0.874
	l-5.153,10.467l11.975,6.09l0.896,0.467l-0.236,0.488l-4.535,9.648l-0.907-0.426l-12.151-5.711l4.958-10.557L124.129,84.306z
	 M107.994,84.71l2.649-5.637l5.622,2.642l5.626,2.642l-2.888,6.145C116.346,88.438,112.87,86.475,107.994,84.71z"/>
<g>
	<path fill="#FFFFFF" d="M61.063,71.366c5.77-16.312,21.34-28.033,39.604-28.033c16.049,0,30.019,9.053,37.087,22.317
		c2.582,1.263,6.436,2.883,10.202,3.478c-6.749-19.638-25.391-33.794-47.29-33.794c-22.957,0-42.336,15.557-48.184,36.677
		C55.371,72.339,58.546,72.327,61.063,71.366z"/>
	<path fill="#FFFFFF" d="M130.485,114.877c-7.616,7.687-18.17,12.457-29.819,12.457c-11.264,0-21.498-4.466-29.048-11.709
		c-2.219,1.175-5.065,2.46-8.023,3.224c9.156,10.117,22.383,16.485,37.071,16.485c14.731,0,27.991-6.406,37.149-16.575
		C135.236,117.868,132.519,116.61,130.485,114.877z"/>
</g>
</svg>
