<?xml version="1.0" encoding="utf-8"?>
<!-- Generator: Adobe Illustrator 15.0.2, SVG Export Plug-In . SVG Version: 6.00 Build 0)  -->
<!DOCTYPE svg PUBLIC "-//W3C//DTD SVG 1.1//EN" "http://www.w3.org/Graphics/SVG/1.1/DTD/svg11.dtd">
<svg version="1.1" id="Calque_2" xmlns="http://www.w3.org/2000/svg" xmlns:xlink="http://www.w3.org/1999/xlink" x="0px" y="0px"
	 width="203px" height="175px" viewBox="0 0 203 175" enable-background="new 0 0 203 175" xml:space="preserve">
<path fill="#FFFFFF" d="M100.667,135.334c-27.57,0-50-22.43-50-50c0-27.57,22.43-50,50-50c27.571,0,50,22.43,50,50
	C150.667,112.904,128.237,135.334,100.667,135.334z M100.667,43.333c-23.159,0-42,18.841-42,42c0,23.159,18.841,42,42,42
	c23.159,0,42-18.842,42-42C142.667,62.174,123.825,43.333,100.667,43.333z"/>
<g>
	<polygon fill="#FFFFFF" points="107.438,123.96 108.274,121.006 105.486,123.407 	"/>
	<path fill="#FFFFFF" d="M117.23,97.314c-0.833-0.109-1.298,0.481-1.376,1.072c-0.121,0.917,0.405,1.338,1.059,1.424
		c0.571,0.075,1.086-0.25,1.432-0.671C118.389,98.432,118.217,97.445,117.23,97.314z"/>
	<path fill="#FFFFFF" d="M122.676,102.414c-0.838,0-1.646,0.126-2.409,0.354c1.488-1.521,2.408-3.599,2.408-5.895
		c0-4.657-3.775-8.432-8.432-8.432c-4.657,0-8.433,3.774-8.433,8.432c0,0.421,0.041,0.831,0.101,1.235
		c-1.463-1.222-3.345-1.958-5.399-1.958c-4.657,0-8.432,3.774-8.432,8.432c0,1.918,0.648,3.681,1.726,5.097
		c-0.251-0.022-0.504-0.038-0.762-0.038c-2.542,0-4.815,1.13-6.362,2.908c0.059-0.399,0.099-0.806,0.099-1.222
		c0-4.657-3.775-8.432-8.432-8.432s-8.432,3.774-8.432,8.432s3.775,8.432,8.432,8.432c2.542,0,4.815-1.13,6.362-2.908
		c-0.059,0.399-0.099,0.806-0.099,1.222c0,4.657,3.775,8.432,8.432,8.432c3.692,0,6.822-2.376,7.964-5.681
		c0.909,3.676,4.22,6.404,8.177,6.404c4.656,0,8.432-3.774,8.432-8.432c0-0.442-0.044-0.874-0.11-1.299
		c1.429,1.112,3.22,1.78,5.17,1.78c4.656,0,8.432-3.774,8.432-8.432S127.332,102.414,122.676,102.414z M78.986,118.067
		c-1.257,0.356-2.19,0.149-2.97-0.419l0.643-1.007c0.568,0.44,1.228,0.583,1.987,0.368c0.847-0.24,1.193-1.011,0.99-1.73
		c-0.242-0.852-0.879-1.2-1.688-0.971c-0.56,0.158-0.955,0.471-1.252,1.038l-1.08,0.035l-1.144-4.036l4.682-1.326l0.3,1.059
		l-3.299,0.935l0.615,2.17c0.225-0.441,0.707-0.873,1.354-1.056c1.232-0.35,2.466,0.208,2.896,1.725
		C81.425,116.281,80.617,117.605,78.986,118.067z M94.511,119.687c-1.171,0.183-2.344-0.656-4.72-2.511l0.501,3.209l-1.062,0.166
		l-0.823-5.267l0.985-0.154c3.093,2.568,3.943,3.273,4.884,3.127c0.667-0.104,0.972-0.741,0.866-1.419
		c-0.122-0.78-0.534-1.333-1.148-1.681l0.619-0.987c0.855,0.521,1.426,1.375,1.606,2.525
		C96.453,118.19,95.846,119.478,94.511,119.687z M99.377,112.139c-0.097-0.162-0.229-0.311-0.386-0.446l-0.119-0.271
		c0.105-0.035,0.39-0.16,0.562-0.236c0.649-0.285,1.011-0.762,0.765-1.322c-0.254-0.576-0.825-0.664-1.445-0.393
		c-0.568,0.25-0.92,0.689-1.09,1.242l-0.916-0.266c0.199-0.787,0.781-1.479,1.705-1.883c1.229-0.541,2.33-0.377,2.791,0.672
		c0.312,0.711-0.043,1.502-0.652,1.908c0.688-0.197,1.623,0.029,1.986,0.855c0.037,0.085,0.058,0.17,0.081,0.256
		c-0.378,0.225-0.771,0.394-1.155,0.488c-0.012-0.113-0.031-0.228-0.083-0.344c-0.289-0.656-0.908-0.661-1.589-0.362
		c-0.128,0.056-0.269,0.122-0.386,0.179C99.427,112.187,99.396,112.17,99.377,112.139z M101.22,116.045
		c-0.28-1.132-0.786-2.171-1.47-3.069c0.251,0.022,0.504,0.038,0.762,0.038c1.139,0,2.223-0.229,3.214-0.638
		C102.59,113.343,101.718,114.605,101.22,116.045z M109.514,124.548l-0.275,0.969l-0.807-0.229L108,126.81l-1.269-0.36l0.431-1.521
		l-3.104-0.881l0.266-0.938l3.917-3.353l1.627,0.462l-1.162,4.1L109.514,124.548z M114.243,110.846c0,0.442,0.044,0.874,0.11,1.299
		c-1.429-1.112-3.219-1.78-5.169-1.78c-1.139,0-2.224,0.229-3.215,0.638c1.817-1.547,2.974-3.847,2.974-6.42
		c0-0.421-0.041-0.831-0.101-1.235c1.463,1.222,3.345,1.958,5.4,1.958c0.838,0,1.645-0.126,2.408-0.354
		C115.163,106.472,114.243,108.55,114.243,110.846z M116.139,103.293c-0.832-0.109-1.481-0.507-1.846-1.041l0.773-0.727
		c0.259,0.417,0.586,0.688,1.193,0.768c1.129,0.149,1.805-0.942,1.958-2.103c0.009-0.062,0.013-0.092,0.021-0.164
		c-0.349,0.442-1.061,0.803-1.846,0.699c-1.178-0.155-2.066-1.027-1.876-2.474c0.165-1.252,1.25-2.146,2.761-1.946
		c2.021,0.267,2.541,2.014,2.296,3.877C119.318,102.116,118.137,103.557,116.139,103.293z M123.57,113.99l-2.781-4.606l-0.471,1.567
		l-1.021-0.188l0.877-2.725l0.996-0.601l3.539,5.864L123.57,113.99z"/>
</g>
</svg>
