<?xml version="1.0" encoding="utf-8"?>
<!-- Generator: Adobe Illustrator 15.0.2, SVG Export Plug-In . SVG Version: 6.00 Build 0)  -->
<!DOCTYPE svg PUBLIC "-//W3C//DTD SVG 1.1//EN" "http://www.w3.org/Graphics/SVG/1.1/DTD/svg11.dtd">
<svg version="1.1" id="Calque_1" xmlns="http://www.w3.org/2000/svg" xmlns:xlink="http://www.w3.org/1999/xlink" x="0px" y="0px"
	 width="200px" height="190px" viewBox="0 0 200 190" enable-background="new 0 0 200 190" xml:space="preserve">
<g>
	<g>
		<path fill="#191919" d="M112.713,96.916c-4.324,8.393-17.803,17.295-18.818,20.346c0,0,2.346-11.275,0.254-17.548
			C91.35,91.322,83.466,84.455,85.501,75.3c1.537-6.916,6.408-11.043,6.867-14.242c0,0,0.558,7.399-0.356,8.739
			c2.422-3.549,5.441-12.808,5.441-15.605c0.51,5.85,0,9.41-0.508,11.444c-0.51,2.035,0,10.427,2.035,15.005
			c2.033,4.578,4.068,6.866,3.561,10.681c0.762-7.375,0-9.664-1.271-12.716s-1.271-8.139,0.762-11.445
			c1.113-1.81,1.533-2.38,2.023-3.373c0.623-1.535,0.65-2.012,0.775-2.731c0.23,0.576,0.291,1.794-0.725,3.979
			c-0.961,3.199-0.145,7.148,1.232,11.28C106.855,80.87,117.037,88.524,112.713,96.916z"/>
	</g>
	<path fill="#191919" d="M85.153,121.312h2.081v4.061h1.959c0.995,0,1.505,0.387,1.854,0.943c0.268,0.431,0.329,1.024,0.329,2.5
		v3.948c0,1.147-0.104,1.77-0.351,2.217c-0.367,0.675-0.972,0.98-1.814,0.98h-1.977h-2.081 M89.294,128.396
		c0-0.654-0.224-1.197-1.017-1.197h-1.043v6.955h1.043c0.71,0,1.017-0.571,1.017-1.414V128.396z M99.299,135.961h-4.07
		c-1.043,0-2.143-0.673-2.143-2.52v-8.069h2.082v7.553c0,0.758,0.361,1.229,1.016,1.229h1.037v-8.781h2.078V135.961z
		 M106.342,125.372h4.08c1.035,0,2.141,0.679,2.141,2.525v8.063h-2.078v-7.546c0-0.76-0.368-1.217-1.027-1.217h-1.032v8.763h-2.083
		V125.372z M109.457,127.198h-1.032H109.457z M105.146,127.198h-1.078c-0.65,0-1.017,0.454-1.017,1.213v7.55h-2.082v-8.063
		c0-1.847,1.106-2.525,2.144-2.525h2.035L105.146,127.198z"/>
</g>
</svg>
