<?xml version="1.0" encoding="utf-8"?>
<!-- Generator: Adobe Illustrator 15.0.2, SVG Export Plug-In . SVG Version: 6.00 Build 0)  -->
<!DOCTYPE svg PUBLIC "-//W3C//DTD SVG 1.1//EN" "http://www.w3.org/Graphics/SVG/1.1/DTD/svg11.dtd">
<svg version="1.1" id="Calque_2" xmlns="http://www.w3.org/2000/svg" xmlns:xlink="http://www.w3.org/1999/xlink" x="0px" y="0px"
	 width="203px" height="175px" viewBox="0 0 203 175" enable-background="new 0 0 203 175" xml:space="preserve">
<g>
	<path fill="#FFFFFF" d="M101.503,79.878c-0.811-1.729-2.572-2.847-4.481-2.847c-0.726,0-1.431,0.157-2.096,0.469
		c-1.196,0.561-2.103,1.553-2.552,2.797c-0.324,0.892-0.376,1.833-0.179,2.736l9.955,1.207c0.058-0.184,0.104-0.375,0.133-0.581
		C102.428,82.584,102.157,81.276,101.503,79.878z"/>
	<path fill="#FFFFFF" d="M45.211,83.591l0.756-5.599c0.081-0.604-0.348-1.095-0.958-1.095h-12.22c-0.609,0-1.106,0.497-1.106,1.105
		V91.65c0,0.609,0.497,1.105,1.106,1.105h3.69C36.998,88.084,40.606,84.331,45.211,83.591z"/>
	<path fill="#FFFFFF" d="M113.397,85.086l-0.016,0.008c0.427,0.791,0.244,1.447,0.229,1.497c-0.271,0.903-1.221,1.611-2.165,1.611
		h-5.33c-1.034,0-1.878-0.844-1.878-1.88v-0.269l-14.381-1.742c-0.604-0.073-1.099-0.631-1.099-1.239v-3.25
		c0-0.608,0.352-1.106,0.781-1.106c0.428,0,0.78-0.497,0.78-1.105v-3.379c0-0.608-0.497-1.105-1.105-1.105h-2.47
		c-0.609,0-1.56,0.202-2.116,0.451L54.653,86.939c1.316,1.467,2.227,3.308,2.547,5.343l2.312-1.097
		c1.2-0.568,3.181-1.055,4.508-1.106l28.343-1.125c1.644-0.061,3.072,1.19,3.243,2.803l0.965,9.124
		c0.039,0.386,0.003,0.761-0.099,1.109h24.909c0.607,0,0.862-0.676,0.363-1.024l-3.743-2.63c-0.498-0.349-0.41-0.686,0.194-0.744
		l7.684-0.766c-0.268-0.924-0.415-1.898-0.415-2.908c0-4.084,2.357-7.628,5.781-9.349h-15.77
		C114.87,84.569,113.933,84.801,113.397,85.086z"/>
	<path fill="#FFFFFF" d="M93.854,102.361c0.36,0,0.68-0.135,0.898-0.381c0.223-0.245,0.323-0.579,0.285-0.94l-0.964-9.121
		c-0.084-0.783-0.793-1.422-1.584-1.422H92.43l-28.344,1.124c-1.111,0.048-2.901,0.486-3.907,0.963l-2.847,1.349
		c-0.004,3.205-1.458,6.077-3.739,7.993l40.244,0.436"/>
	<path fill="#FFFFFF" d="M167.249,91.729l-24.445-5.689c2.196,1.92,3.587,4.737,3.587,7.878c0,0.317-0.017,0.632-0.042,0.941
		l12.94-0.775c-0.037,0.116-0.063,0.239-0.063,0.366v1.188v0.41h5.851v-0.763v-1.553l2.146-0.129
		c0.607-0.036,1.104-0.416,1.104-0.846C168.326,92.33,167.843,91.867,167.249,91.729z"/>
	<path fill="#FFFFFF" d="M105.785,86.322c0,0.181,0.153,0.333,0.333,0.333h5.33c0.259,0,0.584-0.235,0.675-0.481
		c0.033-0.321-0.366-1.054-2.154-1.651c-1.896-0.632-2.942-0.726-3.394-0.726c-0.213,0-0.309,0.021-0.311,0.021
		c-0.221,0.071-0.478,0.417-0.478,0.688v1.817H105.785z"/>
	<path fill="#FFFFFF" d="M46.874,102.831c4.915,0,8.913-3.999,8.913-8.913c0-4.911-3.998-8.912-8.913-8.912
		c-4.914,0-8.911,3.997-8.911,8.912C37.963,98.834,41.96,102.831,46.874,102.831z M46.874,89.098c2.663,0,4.823,2.159,4.823,4.82
		c0,2.665-2.16,4.824-4.823,4.824c-2.664,0-4.823-2.159-4.823-4.824C42.051,91.256,44.21,89.098,46.874,89.098z"/>
	<path fill="#FFFFFF" d="M144.845,93.918c0-4.915-3.998-8.913-8.911-8.913s-8.912,3.998-8.912,8.913c0,4.914,3.999,8.91,8.912,8.91
		S144.845,98.832,144.845,93.918z M135.934,98.742c-2.663,0-4.823-2.159-4.823-4.824c0-2.661,2.16-4.82,4.823-4.82
		c2.664,0,4.823,2.159,4.823,4.82S138.598,98.742,135.934,98.742z"/>
	<path fill="#FFFFFF" d="M159.163,97.596c-0.679,0-1.722-0.139-2.378-0.318l-2.155-0.59c-0.525-0.143-1.427-0.264-1.969-0.264h-3.77
		c-0.181,0-0.332,0.152-0.332,0.334v5.458c0,0.18,0.151,0.331,0.332,0.331h16.771c0.179,0,0.33-0.151,0.33-0.331v-4.29
		c0-0.182-0.151-0.331-0.33-0.331L159.163,97.596L159.163,97.596z"/>
</g>
<g>
	<path fill="#FFFFFF" d="M59.311,78.05c3.46-19.698,20.681-34.717,41.355-34.717c21.188,0,38.751,15.774,41.589,36.194h8.063
		c-2.888-24.843-24.047-44.194-49.653-44.194c-24.582,0-45.062,17.836-49.217,41.243L59.311,78.05z"/>
	<path fill="#FFFFFF" d="M135.663,108.521c-7.531,11.328-20.404,18.812-34.997,18.812c-14.673,0-27.605-7.569-35.118-19.002
		l-8.709,1.04c8.514,15.461,24.965,25.962,43.827,25.962c18.125,0,34.027-9.695,42.796-24.171L135.663,108.521z"/>
</g>
</svg>
