<svg xmlns="http://www.w3.org/2000/svg" xmlns:xlink="http://www.w3.org/1999/xlink" version="1.1" x="0px" y="0px" width="40px" height="30px" viewBox="0 0 40 30" enable-background="new 0 0 40 30" xml:space="preserve"><path fill="#FFFFFF" d="M16.911 6.553l-0.366 0.022c-3.792 0.745-4.931 1.948-6.251 3.342c-0.23 0.242-0.466 0.492-0.723 0.7 c-1.295 1.279-4.405 1.298-5.732 1.306c-0.492 0.002-0.639 0.005-0.737 0.044c-0.292 0.119-0.401 0.2 1.1 4.6 c0.704 2.1 1.5 4.2 1.5 4.236l0.042 0.113l0.112 0.045c0.067 0 0.9 0.3 2.1 0.348c1.084 0 2.441-0.268 3.724-1.26 c0.953-0.736 1.497-1.551 2.023-2.336c0.951-1.422 1.856-2.765 5.072-3.843l3.709 9.234l0.017 0.018l1.017-0.252L16.911 6.553z M15.309 7.401l0.579 1.23l-3.185 1.497l-0.579-1.232C12.871 8.3 13.8 7.8 15.3 7.401z M8.969 11.696l0.072 0.2 l-2.948 1.385l-0.378-0.805C6.789 12.3 8 12.2 9 11.696z M5.011 17.412c-0.319-0.939-0.628-1.867-0.887-2.671 l1.718-0.807l1.188 2.529L5.011 17.412z M6.893 20.777l1.773-0.834l0.382 0.811C8.21 20.9 7.4 20.9 6.9 20.777z M10.803 14.98l1.301 2.766l-3.186 1.498L8.68 19.355l-1.189-2.529l-0.062-0.127l0.235-0.123L10.803 14.98l-1.351-2.743 l-0.135-0.229l0.311-0.144l2.948-1.385l1.412 3.004L10.803 14.98z M15.333 15.107l-0.756-1.61l1.474-0.693l1.474-0.693l0.694 1.5 C16.941 14.1 16 14.6 15.3 15.107z"/><path fill="#FFFFFF" d="M16.494 22.961l1.018 0.25l0.018-0.018l3.709-9.233c3.215 1.1 4.1 2.4 5.1 3.8 c0.526 0.8 1.1 1.6 2 2.338c1.283 1 2.6 1.3 3.7 1.258c1.196 0 2.06-0.322 2.127-0.348l0.112-0.045l0.04-0.113 c0.008-0.02 0.756-2.135 1.46-4.236c1.504-4.479 1.396-4.523 1.103-4.643c-0.1-0.04-0.245-0.042-0.737-0.045 c-1.328-0.008-4.438-0.026-5.734-1.306c-0.255-0.253-0.493-0.503-0.721-0.746c-1.32-1.394-2.461-2.597-6.251-3.341l-0.367-0.022 L16.494 22.961z M27.874 8.896l-0.58 1.232L24.11 8.631l0.577-1.23C26.185 7.8 27.1 8.3 27.9 8.896z M34.281 12.4 l-0.378 0.805l-2.948-1.384l0.072-0.153C31.987 12.2 33.2 12.3 34.3 12.429z M32.966 16.463l1.189-2.53l1.719 0.8 c-0.26 0.804-0.569 1.732-0.887 2.672L32.966 16.463z M30.949 20.754l0.382-0.811l1.774 0.8 C32.553 20.9 31.8 20.9 30.9 20.754z M26.01 13.483l1.41-3.004l2.948 1.385l0.312 0.144l-0.135 0.229l-1.352 2.7 l3.14 1.596l0.233 0.123l-0.062 0.127l-1.188 2.529l-0.236-0.111l-3.187-1.498l1.3-2.766L26.01 13.483z M21.779 13.589l0.693-1.478 l1.475 0.693l1.475 0.693l-0.757 1.61C23.968 14.6 23.1 14.1 21.8 13.589z"/></svg>