<svg xmlns="http://www.w3.org/2000/svg" xmlns:xlink="http://www.w3.org/1999/xlink" version="1.1" x="0px" y="0px" width="40px" height="30px" viewBox="0 0 40 30" enable-background="new 0 0 40 30" xml:space="preserve"><g><g><path fill="#FFFFFF" d="M20.821 6.291c-4.488 0-8.177 3.221-8.838 7.488l-2.093-0.302l3.139 4.433l3.166-4.433l-2.229 0.3 c0.633-3.193 3.469-5.534 6.855-5.534c3.854 0 7 3.1 7 6.966s-3.111 6.966-6.966 6.966c-1.928 0-3.689-0.8-4.956-2.038 l-1.376 1.377c1.597 1.6 3.9 2.6 6.3 2.643c4.929 0 8.948-4.02 8.948-8.947C29.77 10.3 25.8 6.3 20.8 6.291z M20.573 17.579l0.744-2.01l3.578-1.432c1.13-0.523 0.358-2.312-0.798-1.817L20.05 14c-0.22 0.083-0.357 0.275-0.468 0.5 l-0.854 2.368C18.316 18 20.1 18.8 20.6 17.579z"/></g></g></svg>