<svg xmlns="http://www.w3.org/2000/svg" xmlns:xlink="http://www.w3.org/1999/xlink" version="1.1" x="0px" y="0px" width="40px" height="30px" viewBox="0 0 40 30" enable-background="new 0 0 40 30" xml:space="preserve"><g><path fill="#FFFFFF" d="M13.424 16.254c0.756-0.421 0.721-1.308 0.366-1.943c-0.55-0.985-1.284-1.064-1.887-0.728 c-0.525 0.293-0.732 0.955-0.708 1.588C11.662 15.9 12.5 16.8 13.4 16.254z"/><path fill="#FFFFFF" d="M15.744 4.212c-3.912 0-7.084 3.172-7.084 7.084c0 0.1 0 0.2 0 0.3 c0.13-0.826 0.561-1.537 1.395-2.003c0.767-0.428 1.586-0.454 2.267-0.159l-0.124 1.219c-0.511-0.247-0.985-0.298-1.533 0 c-1.019 0.569-0.832 2.088-0.127 3.348c0.042 0.1 0.1 0.1 0.1 0.175c-0.025-0.662 0.308-1.48 1.031-1.884 c1.084-0.605 2.44-0.313 3.3 1.242c0.753 1.3 0.5 2.932-0.903 3.709c-0.537 0.301-1.055 0.379-1.552 0.3 c0.963 0.5 2.1 0.8 3.2 0.773c3.912 0 7.084-3.172 7.084-7.084C22.828 7.4 19.7 4.2 15.7 4.212z"/></g><path fill="#FFFFFF" d="M24.559 11.829c-3.912 0-7.083 3.172-7.083 7.083c0 3.9 3.2 7.1 7.1 7.1 c3.913 0 7.084-3.172 7.084-7.086C31.643 15 28.5 11.8 24.6 11.829z M28.733 18.268c-0.485 0.879-1.485 1.186-2.279 0.9 c0.642 0.5 1 1.6 0.5 2.598c-0.691 1.252-2.078 1.633-3.56 0.812c-1.108-0.615-1.652-1.602-1.709-2.508l1.171-0.328 c0.064 0.7 0.4 1.4 1.1 1.736c0.823 0.5 1.5 0.2 1.861-0.49c0.45-0.812 0.049-1.406-0.688-1.812 c-0.23-0.129-0.522-0.277-0.638-0.326l0.607-1.096c0.104 0.1 0.4 0.2 0.6 0.344c0.703 0.4 1.4 0.3 1.782-0.346 c0.396-0.715 0.107-1.332-0.562-1.703c-0.614-0.34-1.272-0.317-1.92-0.029l-0.341-1.094c0.895-0.451 1.945-0.457 2.9 0.1 C28.889 15.8 29.4 17 28.7 18.268z"/></svg>