<svg xmlns="http://www.w3.org/2000/svg" xmlns:xlink="http://www.w3.org/1999/xlink" version="1.1" x="0px" y="0px" width="40px" height="30px" viewBox="0 0 40 30" enable-background="new 0 0 40 30" xml:space="preserve"><path fill="#FFFFFF" d="M20.87 12.8c-0.2-0.427-0.635-0.702-1.105-0.702c-0.18 0-0.354 0.039-0.518 0.1 c-0.296 0.138-0.52 0.383-0.63 0.69c-0.079 0.22-0.093 0.453-0.044 0.675l2.457 0.298c0.015-0.045 0.025-0.093 0.033-0.143 C21.098 13.5 21 13.1 20.9 12.8z"/><path fill="#FFFFFF" d="M6.977 13.717l0.187-1.382c0.021-0.148-0.085-0.27-0.236-0.27H3.912c-0.15 0-0.272 0.123-0.272 0.273v3.369 c0 0.1 0.1 0.3 0.3 0.272h0.911C4.95 14.8 5.8 13.9 7 13.717z"/><path fill="#FFFFFF" d="M23.806 14.086l-0.004 0.001c0.105 0.2 0.1 0.4 0.1 0.37c-0.067 0.222-0.302 0.397-0.535 0.4 h-1.314c-0.256 0-0.464-0.208-0.464-0.464v-0.066l-3.549-0.43c-0.149-0.018-0.271-0.156-0.271-0.306v-0.802 c0-0.151 0.087-0.273 0.193-0.273c0.106 0 0.192-0.123 0.192-0.272v-0.834c0-0.15-0.123-0.272-0.272-0.272h-0.61 c-0.15 0-0.384 0.05-0.521 0.111l-7.397 3.298c0.325 0.4 0.6 0.8 0.6 1.319l0.57-0.271c0.296-0.141 0.785-0.26 1.113-0.273 l6.995-0.278c0.405-0.015 0.8 0.3 0.8 0.692l0.238 2.252c0.01 0.1 0 0.188-0.024 0.273h6.148 c0.149 0 0.213-0.166 0.089-0.254l-0.924-0.648c-0.123-0.086-0.101-0.169 0.049-0.184l1.896-0.188 c-0.066-0.229-0.103-0.469-0.103-0.719c0-1.007 0.582-1.881 1.426-2.307h-3.892C24.169 14 23.9 14 23.8 14.086z"/><path fill="#FFFFFF" d="M18.982 18.35c0.089 0 0.168-0.033 0.222-0.095c0.055-0.06 0.08-0.143 0.07-0.231l-0.238-2.251 c-0.021-0.193-0.196-0.351-0.391-0.351h-0.014L11.636 15.7c-0.274 0.011-0.716 0.119-0.965 0.237L9.969 16.3 c-0.001 0.79-0.36 1.499-0.923 1.973l9.932 0.1"/><path fill="#FFFFFF" d="M37.096 15.726l-6.033-1.404c0.543 0.5 0.9 1.2 0.9 1.943c0 0.079-0.004 0.157-0.01 0.2 l3.193-0.192c-0.01 0.03-0.017 0.061-0.017 0.091v0.294v0.101h1.444v-0.188V16.22l0.529-0.032c0.151-0.009 0.273-0.102 0.273-0.208 S37.243 15.8 37.1 15.726z"/><path fill="#FFFFFF" d="M21.927 14.391c0 0 0 0.1 0.1 0.082h1.315c0.064 0 0.145-0.058 0.167-0.118 c0.008-0.08-0.091-0.26-0.532-0.408c-0.467-0.156-0.726-0.18-0.837-0.18c-0.053 0-0.076 0.005-0.076 0 c-0.056 0.018-0.118 0.103-0.118 0.169L21.927 14.391L21.927 14.391z"/><path fill="#FFFFFF" d="M7.387 18.466c1.213 0 2.2-0.988 2.2-2.201c0-1.211-0.987-2.199-2.2-2.199c-1.212 0-2.199 0.987-2.199 2.2 C5.188 17.5 6.2 18.5 7.4 18.466z M7.387 15.076c0.658 0 1.2 0.5 1.2 1.189c0 0.658-0.533 1.192-1.191 1.2 c-0.657 0-1.19-0.534-1.19-1.192C6.197 15.6 6.7 15.1 7.4 15.076z"/><path fill="#FFFFFF" d="M31.566 16.265c0-1.212-0.987-2.199-2.2-2.199c-1.21 0-2.197 0.987-2.197 2.199c0 1.2 1 2.2 2.2 2.2 C30.579 18.5 31.6 17.5 31.6 16.265z M29.366 17.457c-0.655 0-1.189-0.534-1.189-1.192c0-0.656 0.534-1.189 1.189-1.189 c0.658 0 1.2 0.5 1.2 1.189C30.559 16.9 30 17.5 29.4 17.457z"/><path fill="#FFFFFF" d="M35.101 17.173c-0.168 0-0.426-0.034-0.587-0.078l-0.532-0.146c-0.13-0.035-0.353-0.064-0.486-0.064h-0.931 c-0.043 0-0.081 0.037-0.081 0.082v1.346c0 0 0 0.1 0.1 0.083h4.141c0.044 0 0.081-0.038 0.081-0.083v-1.059 c0-0.043-0.037-0.081-0.081-0.081H35.101L35.101 17.173z"/></svg>