<svg xmlns="http://www.w3.org/2000/svg" xmlns:xlink="http://www.w3.org/1999/xlink" version="1.1" x="0px" y="0px" width="40px" height="30px" viewBox="0 0 40 30" enable-background="new 0 0 40 30" xml:space="preserve"><path fill="#FFFFFF" d="M16.259 24.855c-0.052 0-0.094 0.043-0.094 0.094v0.199c0 0.1 0 0.1 0.1 0.092h7.482 c0.052 0 0.094-0.041 0.094-0.092v-0.199c0-0.051-0.042-0.094-0.094-0.094H16.259z"/><path fill="#FFFFFF" d="M16.467 7.884c-0.052 0-0.094 0.042-0.094 0.094v0.245c0 0.1 0 0.1 0.1 0.094h7.066 c0.051 0 0.094-0.042 0.094-0.094V7.978c0-0.052-0.043-0.094-0.094-0.094H16.467z"/><path fill="#FFFFFF" d="M21.917 6.516c1.134 0.2 1.2 1.2 1.2 1.17h-6.283c0 0 0.091-1.014 1.225-1.17H21.917z"/><path fill="#FFFFFF" d="M18.272 5.886c-0.161 0-0.161 0.161-0.161 0.161v0.272h3.777V6.047c0 0 0-0.161-0.161-0.161H18.272 L18.272 5.886z"/><path fill="#FFFFFF" d="M23.449 8.514l0.25 0.261c0 0 0.1 0.1 0.1 0.188s0 15.6 0 15.624s-0.01 0.043-0.029 0.07h-7.483 c-0.021-0.027-0.032-0.07-0.032-0.07s0-15.52 0-15.624s0.073-0.188 0.073-0.188l0.25-0.261H23.449z"/><path fill="#FFFFFF" d="M21.008 4.408c0 0 0-0.114-0.114-0.114h-0.472c0 0-0.242 0.03-0.422 0.03c-0.18 0-0.422-0.03-0.422-0.03 h-0.472c-0.114 0-0.114 0.114-0.114 0.114l-0.06 1.279h2.136L21.008 4.408z M20 5.177c-0.16 0-0.289-0.129-0.289-0.289 S19.84 4.6 20 4.6c0.159 0 0.3 0.1 0.3 0.289C20.288 5 20.2 5.2 20 5.177z"/><circle fill="#FFFFFF" cx="20" cy="4.9" r="0.1"/></svg>