<?xml version="1.0" encoding="utf-8"?>
<!-- Generator: Adobe Illustrator 15.0.2, SVG Export Plug-In . SVG Version: 6.00 Build 0)  -->
<!DOCTYPE svg PUBLIC "-//W3C//DTD SVG 1.1//EN" "http://www.w3.org/Graphics/SVG/1.1/DTD/svg11.dtd">
<svg version="1.1" id="Calque_2" xmlns="http://www.w3.org/2000/svg" xmlns:xlink="http://www.w3.org/1999/xlink" x="0px" y="0px"
	 width="203px" height="175px" viewBox="0 0 203 175" enable-background="new 0 0 203 175" xml:space="preserve">
<path fill="#FFFFFF" d="M100.667,135.334c-27.57,0-50-22.43-50-50c0-27.57,22.43-50,50-50c27.571,0,50,22.43,50,50
	C150.667,112.904,128.237,135.334,100.667,135.334z M100.667,43.333c-23.159,0-42,18.841-42,42c0,23.159,18.841,42,42,42
	c23.159,0,42-18.842,42-42C142.667,62.174,123.825,43.333,100.667,43.333z"/>
<g>
	<g>
		<path fill="#FFFFFF" d="M101.734,54.094c-15.629,0-28.479,11.219-30.78,26.081l-7.287-1.054L74.599,94.56l11.026-15.439
			l-7.767,1.151c2.206-11.123,12.082-19.273,23.876-19.273c13.425,0,24.26,10.835,24.26,24.259c0,13.425-10.835,24.261-24.26,24.261
			c-6.712,0-12.849-2.781-17.26-7.096l-4.794,4.795c5.562,5.656,13.424,9.203,22.054,9.203c17.163,0,31.163-13.998,31.163-31.163
			C132.897,67.998,118.897,54.094,101.734,54.094z M100.872,93.409l2.589-7.001l12.465-4.985c3.931-1.823,1.246-8.056-2.781-6.33
			l-14.096,5.849c-0.766,0.288-1.246,0.958-1.629,1.822l-2.972,8.247C93.009,94.942,99.338,97.819,100.872,93.409z"/>
	</g>
</g>
</svg>
